<svg xmlns="http://www.w3.org/2000/svg" viewBox="0 0 64 64">
  <defs><linearGradient id="g" x1="0" y1="0" x2="1" y2="1"><stop stop-color="#fff2bd"/><stop offset=".55" stop-color="#d3a84e"/><stop offset="1" stop-color="#77501d"/></linearGradient></defs>
  <path fill="url(#g)" stroke="#fff0b0" stroke-width="1.5" d="M32 5c-7 0-12 5-12 11 0 4 2 7 5 9-1 9-5 15-9 20h32c-4-5-8-11-9-20 3-2 5-5 5-9 0-6-5-11-12-11Zm-17 43h34l4 7H11l4-7Zm-4 9h42v3H11v-3Z"/>
  <circle cx="32" cy="16" r="5" fill="#5d3d17" opacity=".35"/>
</svg>
