<svg xmlns="http://www.w3.org/2000/svg" viewBox="0 0 64 64">
  <defs>
    <linearGradient id="gold" x1="0" y1="0" x2="1" y2="1">
      <stop stop-color="#fff2bd"/>
      <stop offset=".5" stop-color="#d3a84e"/>
      <stop offset="1" stop-color="#77501d"/>
    </linearGradient>
    <radialGradient id="core">
      <stop stop-color="#fffbe6"/>
      <stop offset=".45" stop-color="#ffd56a"/>
      <stop offset="1" stop-color="#8d5418"/>
    </radialGradient>
  </defs>
  <circle cx="32" cy="32" r="25" fill="#080b18" stroke="url(#gold)" stroke-width="2"/>
  <circle cx="32" cy="32" r="18" fill="none" stroke="#9a742e" stroke-width="1.5" stroke-dasharray="3 3"/>
  <path fill="url(#core)" stroke="#fff0b0" stroke-width="1.2" d="M32 12l4.4 14.1L50 32l-13.6 5.9L32 52l-4.4-14.1L14 32l13.6-5.9L32 12Z"/>
  <circle cx="32" cy="32" r="5" fill="#fff8cf"/>
  <path fill="url(#gold)" d="M13 13l1.8 5.2L20 20l-5.2 1.8L13 27l-1.8-5.2L6 20l5.2-1.8L13 13Zm38 24 1.8 5.2L58 44l-5.2 1.8L51 51l-1.8-5.2L44 44l5.2-1.8L51 37Z"/>
</svg>
